<svg width="474" height="1093" viewBox="0 0 474 1093" fill="none" xmlns="http://www.w3.org/2000/svg">
<path d="M329.902 1054.16L331.8 471.029C415.224 433.169 474 346.633 474 245.839C474 110.135 367.824 0 237 0C106.175 0 1.06946e-05 110.135 1.06946e-05 245.839C1.06946e-05 346.633 58.7755 433.169 142.2 471.029V508.886L179.648 587.064V625.906L217.096 664.75V742.433L179.648 781.77V820.611L217.096 859.453V937.139L179.648 976.472L217.096 1015.32V1054.16L255.012 1093H292.454L329.902 1054.16ZM177.75 147.504C177.75 113.578 204.297 86.0437 237 86.0437C269.703 86.0437 296.25 113.578 296.25 147.504C296.25 181.429 269.703 208.963 237 208.963C204.297 208.963 177.75 181.429 177.75 147.504Z" fill="#B3E5FC"/>
</svg>
